<svg width="276" height="48" viewBox="0 0 276 48" fill="none" xmlns="http://www.w3.org/2000/svg">
<path d="M252.476 0H23.5241C10.5321 0 0 10.7452 0 24C0 37.2548 10.5321 48 23.5241 48H252.476C265.468 48 276 37.2548 276 24C276 10.7452 265.468 0 252.476 0Z" fill="url(#paint0_linear_5_17)"/>
<path d="M64.368 25.778C63.54 26.606 62.298 27.056 61.2 27.056C58.086 27.056 56.88 24.878 56.862 22.79C56.844 20.684 58.158 18.416 61.2 18.416C62.298 18.416 63.414 18.794 64.242 19.604L65.826 18.074C64.53 16.796 62.91 16.148 61.2 16.148C56.646 16.148 54.504 19.496 54.522 22.79C54.54 26.066 56.52 29.288 61.2 29.288C63.018 29.288 64.692 28.694 65.988 27.416L64.368 25.778ZM73.2493 16.148C68.8933 16.148 66.7693 19.478 66.7693 22.79C66.7693 26.102 68.8213 29.288 73.2493 29.288C77.6773 29.288 79.6753 26.03 79.7113 22.772C79.7473 19.478 77.5873 16.148 73.2493 16.148ZM73.2493 18.308C76.2193 18.308 77.4073 20.684 77.3713 22.808C77.3353 24.878 76.2193 27.11 73.2493 27.11C70.2793 27.11 69.1633 24.896 69.1093 22.826C69.0553 20.702 70.2793 18.308 73.2493 18.308ZM89.7401 24.212L83.5661 16.4H81.6401V29H84.0161V20.504L90.6401 29.018V29H92.1161V16.382H89.7401V24.212ZM102.572 24.212L96.3982 16.4H94.4722V29H96.8482V20.504L103.472 29.018V29H104.948V16.382H102.572V24.212ZM116.52 26.66H109.446V23.816H116.268V21.602H109.446V18.704H116.52V16.4H107.088C107.088 20.594 107.088 24.806 107.088 29H116.52V26.66ZM127.843 25.778C127.015 26.606 125.773 27.056 124.675 27.056C121.561 27.056 120.355 24.878 120.337 22.79C120.319 20.684 121.633 18.416 124.675 18.416C125.773 18.416 126.889 18.794 127.717 19.604L129.301 18.074C128.005 16.796 126.385 16.148 124.675 16.148C120.121 16.148 117.979 19.496 117.997 22.79C118.015 26.066 119.995 29.288 124.675 29.288C126.493 29.288 128.167 28.694 129.463 27.416L127.843 25.778ZM133.884 29H136.26V18.56H140.256V16.4C136.602 16.4 133.524 16.4 129.888 16.4V18.56H133.884V29ZM163.483 16.4H160.819L157.939 25.49L154.789 16.4H153.241L150.181 25.49L147.211 16.4H144.547L149.173 29H151.189L152.719 25.076L154.033 21.062L155.365 25.04L156.931 29H158.947L163.483 16.4ZM174.947 29H177.539L171.887 16.4H169.295L163.643 29H166.217L167.297 26.624H173.885L174.947 29ZM172.931 24.41H168.251L170.591 19.046L172.931 24.41ZM178.808 16.4V29H187.664V26.804H181.184V16.4H178.808ZM189.337 16.4V29H198.193V26.804H191.713V16.4H189.337ZM209.262 26.66H202.188V23.816H209.01V21.602H202.188V18.704H209.262V16.4H199.83C199.83 20.594 199.83 24.806 199.83 29H209.262V26.66ZM215.095 29H217.471V18.56H221.467V16.4C217.813 16.4 214.735 16.4 211.099 16.4V18.56H215.095V29Z" fill="white"/>
<defs>
<linearGradient id="paint0_linear_5_17" x1="285.108" y1="106.224" x2="278.242" y2="-20.6075" gradientUnits="userSpaceOnUse">
<stop stop-color="#F9D207"/>
<stop offset="0.78" stop-color="#F92032"/>
<stop offset="1" stop-color="#F92032"/>
</linearGradient>
</defs>
</svg>
