<svg width="24" height="24" viewBox="0 0 24 24" fill="none" xmlns="http://www.w3.org/2000/svg">
<path d="M12.002 23.4371C18.4582 23.4371 23.692 18.2033 23.692 11.7471C23.692 5.29092 18.4582 0.0571289 12.002 0.0571289C5.5458 0.0571289 0.312012 5.29092 0.312012 11.7471C0.312012 18.2033 5.5458 23.4371 12.002 23.4371Z" fill="#4D4D4D"/>
<path d="M12.0009 17.87C15.3826 17.87 18.1239 15.1287 18.1239 11.747C18.1239 8.36538 15.3826 5.62402 12.0009 5.62402C8.61929 5.62402 5.87793 8.36538 5.87793 11.747C5.87793 15.1287 8.61929 17.87 12.0009 17.87Z" fill="url(#paint0_linear_5_62)"/>
<path d="M15.693 11.5281C15.6514 11.5281 15.6114 11.5446 15.582 11.5741C15.5525 11.6035 15.536 11.6435 15.536 11.6851C15.536 11.7267 15.5525 11.7667 15.582 11.7961C15.6114 11.8255 15.6514 11.8421 15.693 11.8421C15.7139 11.8424 15.7339 11.8506 15.749 11.8651C15.7563 11.8724 15.7621 11.8812 15.7661 11.8908C15.77 11.9004 15.772 11.9107 15.772 11.9211V14.5921C15.7717 14.6129 15.7633 14.6327 15.7485 14.6473C15.7337 14.6619 15.7138 14.6701 15.693 14.6701H8.30899C8.2883 14.6701 8.26847 14.6619 8.25385 14.6472C8.23922 14.6326 8.23099 14.6128 8.23099 14.5921V11.9211C8.23086 11.9108 8.23277 11.9005 8.23663 11.8909C8.24049 11.8814 8.24622 11.8726 8.25348 11.8653C8.26074 11.8579 8.2694 11.8521 8.27893 11.8481C8.28846 11.8441 8.29866 11.8421 8.30899 11.8421C8.35063 11.8421 8.39057 11.8255 8.42001 11.7961C8.44946 11.7667 8.466 11.7267 8.466 11.6851C8.466 11.6435 8.44946 11.6035 8.42001 11.5741C8.39057 11.5446 8.35063 11.5281 8.30899 11.5281C8.25751 11.528 8.20652 11.5381 8.15897 11.5578C8.11142 11.5776 8.06828 11.6065 8.03201 11.6431C7.99553 11.6796 7.96657 11.7229 7.94684 11.7706C7.92711 11.8183 7.91696 11.8695 7.91699 11.9211V14.5921C7.91726 14.696 7.95865 14.7955 8.0321 14.869C8.10556 14.9424 8.20511 14.9838 8.30899 14.9841H15.693C15.797 14.9841 15.8969 14.9428 15.9706 14.8693C16.0442 14.7958 16.0857 14.6961 16.086 14.5921V11.9211C16.086 11.8169 16.0446 11.7169 15.9709 11.6432C15.8972 11.5695 15.7972 11.5281 15.693 11.5281Z" fill="#4C4C4D"/>
<path d="M9.016 13.0992C8.97436 13.0992 8.93445 13.1157 8.90501 13.1452C8.87557 13.1746 8.85902 13.2146 8.85902 13.2562C8.85902 13.2978 8.87557 13.3378 8.90501 13.3672C8.93445 13.3966 8.97436 13.4132 9.016 13.4132H14.986C15.0276 13.4132 15.0676 13.3966 15.097 13.3672C15.1265 13.3378 15.143 13.2978 15.143 13.2562C15.143 13.2146 15.1265 13.1746 15.097 13.1452C15.0676 13.1157 15.0276 13.0992 14.986 13.0992H14.386C14.798 12.6388 15.068 12.069 15.1632 11.4586C15.2585 10.8482 15.175 10.2232 14.9229 9.65918C14.6708 9.09515 14.2607 8.61619 13.7423 8.28009C13.2239 7.94399 12.6193 7.76514 12.0015 7.76514C11.3837 7.76514 10.7791 7.94399 10.2607 8.28009C9.74229 8.61619 9.33226 9.09515 9.08012 9.65918C8.82798 10.2232 8.74452 10.8482 8.83979 11.4586C8.93506 12.069 9.205 12.6388 9.61702 13.0992H9.016ZM9.11601 10.9612C9.11586 10.4802 9.23582 10.0067 9.46501 9.58379C9.6942 9.16087 10.0254 8.80187 10.4285 8.53937C10.8316 8.27687 11.2938 8.11916 11.7733 8.08058C12.2528 8.042 12.7343 8.12375 13.1742 8.31842C13.6141 8.51309 13.9984 8.81453 14.2922 9.19536C14.5861 9.57619 14.7802 10.0244 14.857 10.4992C14.9337 10.9741 14.8907 11.4606 14.7318 11.9147C14.5729 12.3687 14.3031 12.7758 13.947 13.0992H10.06C9.76183 12.8285 9.52349 12.4985 9.36024 12.1303C9.19699 11.7621 9.11245 11.3639 9.11201 10.9612H9.11601Z" fill="#4C4C4D"/>
<path d="M13.5099 10.8831L12.1099 9.48314C12.0954 9.4686 12.0782 9.45706 12.0592 9.44919C12.0402 9.44131 12.0199 9.43726 11.9994 9.43726C11.9789 9.43726 11.9585 9.44131 11.9395 9.44919C11.9206 9.45706 11.9034 9.4686 11.8889 9.48314L10.4889 10.8831C10.4598 10.9128 10.4433 10.9526 10.4429 10.9941C10.4429 11.0358 10.4594 11.0757 10.4889 11.1051L11.8889 12.5051C11.9034 12.5197 11.9206 12.5312 11.9395 12.5391C11.9585 12.547 11.9789 12.551 11.9994 12.551C12.0199 12.551 12.0402 12.547 12.0592 12.5391C12.0782 12.5312 12.0954 12.5197 12.1099 12.5051L13.5099 11.1051C13.5246 11.0907 13.5363 11.0734 13.5442 11.0544C13.5521 11.0353 13.5561 11.0148 13.5559 10.9941C13.5559 10.9525 13.5393 10.9126 13.5099 10.8831ZM12.0009 12.1702L10.8229 10.9921L12.0009 9.81314L13.1799 10.9921L12.0009 12.1702Z" fill="#4C4C4D"/>
<defs>
<linearGradient id="paint0_linear_5_62" x1="5.02071" y1="17.221" x2="28.8147" y2="-1.44192" gradientUnits="userSpaceOnUse">
<stop stop-color="#FBD407"/>
<stop offset="0.78" stop-color="#FB2032"/>
<stop offset="1" stop-color="#FB2032"/>
</linearGradient>
</defs>
</svg>
