<svg width="128" height="20" viewBox="0 0 128 20" fill="none" xmlns="http://www.w3.org/2000/svg">
<path d="M9.99991 0C8.0221 0 6.08874 0.586489 4.44425 1.6853C2.79976 2.78412 1.51802 4.34596 0.761144 6.17322C0.00426775 8.00048 -0.193678 10.0111 0.192174 11.9509C0.578027 13.8907 1.53034 15.6726 2.92887 17.0711C4.32739 18.4696 6.1093 19.422 8.04911 19.8079C9.98892 20.1937 11.9996 19.9957 13.8268 19.2388C15.6541 18.482 17.2158 17.2002 18.3146 15.5557C19.4134 13.9112 19.9999 11.9778 19.9999 10C19.9999 7.34784 18.9464 4.80432 17.0711 2.92896C15.1957 1.05359 12.6521 0 9.99991 0ZM8.73392 4.96899C9.40992 4.61599 9.97703 4.32805 9.99003 4.32605C10.0563 4.3486 10.1197 4.37877 10.179 4.41602C10.267 4.46402 10.729 4.71005 11.204 4.95905C12.186 5.47805 12.549 5.67203 12.57 5.69403C12.2227 5.90562 11.854 6.07994 11.47 6.21405L10.8 6.51404L10.391 6.30402L9.98099 6.09302L9.60697 6.28601C9.47072 6.36163 9.32977 6.42845 9.18497 6.48602C9.12197 6.48602 7.50297 5.66603 7.50297 5.63403C7.50397 5.62003 8.05692 5.31999 8.73392 4.96899ZM5.06302 6.86902L5.76298 6.50403C6.01232 6.36719 6.26944 6.24495 6.53299 6.138C6.57199 6.138 7.35303 6.52404 8.27103 6.99304C8.84077 7.2393 9.38503 7.5407 9.89603 7.89301C9.86803 7.91401 9.67698 8.00602 9.47098 8.09302C9.26498 8.18002 9.01099 8.29805 8.90799 8.34705L8.50797 8.53204L8.29398 8.62701L7.81302 8.36804C7.53036 8.21404 7.24767 8.06069 6.965 7.90802L6.59891 7.70801V9.39105L5.85099 9.724C5.43799 9.907 5.09297 10.057 5.08097 10.057C5.06897 10.057 5.05997 9.34004 5.05997 8.46204L5.06302 6.86902ZM6.32096 13.842L5.69193 13.521L5.06302 13.199L5.07194 12.26C5.07994 11.473 5.09195 11.315 5.13895 11.288C5.18595 11.261 5.52603 11.1051 6.77103 10.5421L7.99296 9.99005L10.415 8.89001C11.138 8.56301 12.0149 8.16905 12.3579 8.01105C12.5731 7.92302 12.7831 7.82281 12.987 7.711C12.7993 7.58582 12.6054 7.47039 12.4059 7.36505C12.2062 7.25929 12.012 7.14343 11.824 7.01801C11.824 7.00801 12.2169 6.81799 12.6969 6.60699C13.1769 6.39599 13.581 6.20703 13.597 6.20703C13.613 6.20703 13.913 6.353 14.263 6.534L14.902 6.862L14.893 7.81305L14.881 8.76202L14.4309 8.96802C14.1829 9.08302 13.4989 9.39302 12.9109 9.65802C12.2409 9.96202 11.5706 10.2647 10.8999 10.566C9.39994 11.244 8.70598 11.558 7.79398 11.966C7.32498 12.176 6.941 12.36 6.939 12.366C6.937 12.372 6.96792 12.401 7.00492 12.413C7.13034 12.4732 7.25259 12.54 7.37101 12.613C7.53501 12.708 7.75901 12.8351 7.87101 12.8911C7.94473 12.922 8.01238 12.9656 8.07096 13.02C8.07096 13.034 7.67891 13.22 7.19791 13.439L6.32096 13.842ZM11.8319 14.778C11.4029 14.986 10.815 15.278 10.522 15.419L9.99003 15.682L8.72794 15.045C7.64994 14.501 7.37198 14.335 7.53898 14.335C7.55698 14.335 7.89803 14.185 8.29703 14.004C8.69603 13.823 9.05896 13.659 9.09696 13.642C9.13496 13.625 9.28194 13.665 9.58194 13.815C10.0299 14.037 9.95602 14.033 10.334 13.87C10.459 13.815 10.585 13.761 10.71 13.708L11.0099 13.577L11.795 13.9771C12.228 14.1971 12.587 14.377 12.595 14.388C12.603 14.399 12.2559 14.574 11.8319 14.774V14.778ZM14.912 13.125C14.6703 13.2784 14.4199 13.4177 14.162 13.5421L13.439 13.916L11.7499 13.038C10.8299 12.562 10.0879 12.157 10.0879 12.138C10.0879 12.119 10.419 11.981 10.788 11.815C11.157 11.649 11.511 11.4941 11.571 11.4641C11.671 11.4141 11.6999 11.423 12.1349 11.655C12.7349 11.979 13.335 12.285 13.372 12.29C13.4032 12.0145 13.4156 11.7372 13.409 11.46L13.417 10.626L13.736 10.48L14.297 10.2271C14.43 10.1691 14.615 10.083 14.71 10.036C14.7746 10.0028 14.8414 9.97409 14.9099 9.95001C14.9429 9.94301 14.9469 13.074 14.9099 13.125H14.912Z" fill="url(#paint0_linear_171_263)"/>
<path d="M46 0C44.0222 0 42.0887 0.586489 40.4442 1.6853C38.7997 2.78412 37.5181 4.34596 36.7612 6.17322C36.0044 8.00048 35.8063 10.0111 36.1921 11.9509C36.578 13.8907 37.5304 15.6726 38.929 17.0711C40.3275 18.4696 42.1093 19.422 44.0491 19.8079C45.9889 20.1937 47.9995 19.9957 49.8268 19.2388C51.654 18.482 53.2159 17.2002 54.3147 15.5557C55.4135 13.9112 56 11.9778 56 10C55.9987 7.34824 54.9447 4.8055 53.0696 2.93042C51.1945 1.05534 48.6518 0.00132489 46 0ZM44.429 12.27H45.09V14.708C45.0892 14.8283 45.0411 14.9434 44.9562 15.0286C44.8712 15.1137 44.7562 15.162 44.636 15.163H43.231C43.1107 15.162 42.9957 15.1137 42.9108 15.0286C42.8258 14.9434 42.7778 14.8283 42.777 14.708V12.274H40.377C40.293 12.2768 40.2098 12.2578 40.1354 12.219C40.061 12.1801 39.9978 12.1227 39.9522 12.0523C39.9065 11.9819 39.8798 11.9008 39.8746 11.817C39.8695 11.7332 39.8862 11.6495 39.923 11.574L43.475 5.12805C43.5225 5.04379 43.5916 4.97365 43.6752 4.92487C43.7587 4.87608 43.8537 4.8504 43.9504 4.8504C44.0472 4.8504 44.1423 4.87608 44.2258 4.92487C44.3094 4.97365 44.3785 5.04379 44.426 5.12805L45.9149 7.979L43.9309 11.579C43.8966 11.6566 43.8822 11.7415 43.8889 11.826C43.9106 11.9529 43.977 12.0677 44.0761 12.1499C44.1751 12.2321 44.3003 12.2761 44.429 12.274V12.27ZM51.619 12.27H49.2639V14.708C49.2631 14.8283 49.2152 14.9434 49.1303 15.0286C49.0453 15.1137 48.9302 15.162 48.8099 15.163H47.323C47.2024 15.1625 47.0868 15.1144 47.0015 15.0292C46.9161 14.944 46.8677 14.8286 46.8669 14.708V12.274H47.5289C47.6579 12.2754 47.7831 12.2302 47.8815 12.1468C47.9799 12.0634 48.045 11.9474 48.0649 11.82C48.0715 11.7356 48.0574 11.6508 48.0239 11.573L46.041 7.97302L47.57 5.12201C47.6175 5.03775 47.6866 4.96767 47.7701 4.91888C47.8537 4.8701 47.9487 4.84436 48.0454 4.84436C48.1422 4.84436 48.2373 4.8701 48.3208 4.91888C48.4044 4.96767 48.4734 5.03775 48.521 5.12201L52.073 11.568C52.1112 11.6438 52.129 11.7283 52.1245 11.813C52.1201 11.8978 52.0936 11.9799 52.0476 12.0513C52.0016 12.1226 51.9378 12.1807 51.8624 12.2198C51.7871 12.2589 51.7027 12.2776 51.6179 12.274L51.619 12.27Z" fill="url(#paint1_linear_171_263)"/>
<path d="M82 0C80.0222 0 78.0888 0.586489 76.4443 1.6853C74.7998 2.78412 73.5181 4.34596 72.7612 6.17322C72.0044 8.00048 71.8063 10.0111 72.1921 11.9509C72.578 13.8907 73.5304 15.6726 74.929 17.0711C76.3275 18.4696 78.1094 19.422 80.0492 19.8079C81.989 20.1937 83.9996 19.9957 85.8269 19.2388C87.6542 18.482 89.2159 17.2002 90.3147 15.5557C91.4135 13.9112 92 11.9778 92 10C92 7.34784 90.9465 4.80432 89.0712 2.92896C87.1958 1.05359 84.6522 0 82 0ZM86.769 6.50604C86.74 6.90604 86.5081 8.32605 86.2771 9.86005C85.9301 12.028 85.5541 14.398 85.5541 14.398C85.5541 14.398 85.4971 15.062 85.0061 15.179C84.4799 15.17 83.9715 14.9871 83.5601 14.659C83.4431 14.571 81.392 13.271 80.64 12.634C80.5637 12.5822 80.5016 12.5118 80.4597 12.4296C80.4178 12.3473 80.3974 12.2558 80.4003 12.1636C80.4032 12.0713 80.4293 11.9813 80.4763 11.9018C80.5233 11.8223 80.5896 11.756 80.6691 11.709C81.7091 10.756 82.9521 9.56903 83.7051 8.81903C84.0511 8.47203 84.398 7.662 82.952 8.646C80.901 10.062 78.8761 11.3911 78.8761 11.3911C78.6679 11.4849 78.4428 11.5358 78.2145 11.5408C77.9861 11.5458 77.7591 11.5047 77.547 11.42C76.678 11.159 75.667 10.813 75.667 10.813C75.667 10.813 74.9731 10.38 76.1581 9.91302C76.1581 9.91302 81.158 7.86104 82.894 7.13904C83.56 6.85004 85.8151 5.92505 85.8151 5.92505C85.8151 5.92505 86.855 5.52204 86.769 6.50604Z" fill="url(#paint2_linear_171_263)"/>
<path d="M118 0C116.022 0 114.089 0.586489 112.444 1.6853C110.8 2.78412 109.518 4.34596 108.761 6.17322C108.004 8.00048 107.806 10.0111 108.192 11.9509C108.578 13.8907 109.53 15.6726 110.929 17.0711C112.327 18.4696 114.109 19.422 116.049 19.8079C117.989 20.1937 120 19.9957 121.827 19.2388C123.654 18.482 125.216 17.2002 126.315 15.5557C127.414 13.9112 128 11.9778 128 10C128 7.34784 126.946 4.80432 125.071 2.92896C123.196 1.05359 120.652 0 118 0ZM122.486 7.70001C122.492 7.80001 122.494 7.9 122.494 8C122.495 9.18213 122.178 10.3428 121.576 11.3601C120.974 12.3774 120.109 13.2138 119.072 13.7815C118.035 14.3492 116.865 14.6271 115.683 14.5862C114.502 14.5453 113.353 14.187 112.358 13.549C113.582 13.6901 114.812 13.3458 115.785 12.59C115.302 12.5805 114.834 12.4204 114.446 12.132C114.058 11.8435 113.77 11.4411 113.622 10.981C113.766 11.0091 113.912 11.0235 114.059 11.024C114.265 11.0244 114.47 10.9968 114.668 10.942C114.144 10.836 113.673 10.5521 113.335 10.1383C112.996 9.72454 112.812 9.20646 112.812 8.672V8.64301C113.133 8.82171 113.493 8.92052 113.86 8.93103C113.369 8.60422 113.022 8.10245 112.889 7.5282C112.755 6.95395 112.846 6.35048 113.143 5.841C113.724 6.55626 114.449 7.14121 115.272 7.5578C116.094 7.97439 116.994 8.21332 117.915 8.25903C117.875 8.08591 117.854 7.90876 117.854 7.73102C117.854 7.26668 117.994 6.81316 118.256 6.42932C118.517 6.04548 118.887 5.74904 119.319 5.57849C119.751 5.40794 120.224 5.37116 120.677 5.4729C121.13 5.57464 121.543 5.81022 121.86 6.14905C122.378 6.04551 122.875 5.85511 123.329 5.586C123.156 6.12167 122.795 6.57648 122.312 6.86603C122.771 6.81275 123.219 6.68967 123.641 6.50104C123.331 6.96719 122.939 7.3742 122.486 7.703V7.70001Z" fill="url(#paint3_linear_171_263)"/>
<defs>
<linearGradient id="paint0_linear_171_263" x1="-12.8399" y1="13.08" x2="191.199" y2="-14.3797" gradientUnits="userSpaceOnUse">
<stop stop-color="#F9D207"/>
<stop offset="0.78" stop-color="#F92032"/>
<stop offset="1" stop-color="#F92032"/>
</linearGradient>
<linearGradient id="paint1_linear_171_263" x1="-4.48001" y1="16.8" x2="199.56" y2="-10.66" gradientUnits="userSpaceOnUse">
<stop stop-color="#F9D207"/>
<stop offset="0.78" stop-color="#F92032"/>
<stop offset="1" stop-color="#F92032"/>
</linearGradient>
<linearGradient id="paint2_linear_171_263" x1="-2.88002" y1="21.42" x2="201.18" y2="-6.01996" gradientUnits="userSpaceOnUse">
<stop stop-color="#F9D207"/>
<stop offset="0.78" stop-color="#F92032"/>
<stop offset="1" stop-color="#F92032"/>
</linearGradient>
<linearGradient id="paint3_linear_171_263" x1="3.47981" y1="25.4" x2="207.54" y2="-2.04005" gradientUnits="userSpaceOnUse">
<stop stop-color="#F9D207"/>
<stop offset="0.78" stop-color="#F92032"/>
<stop offset="1" stop-color="#F92032"/>
</linearGradient>
</defs>
</svg>
